<svg height="1998" width="720" xmlns="http://www.w3.org/2000/svg">
<rect height="1998" fill="#555" width="720"></rect>
<text fill="#7f7" font-family="Courier New" font-size="12" xml:space="preserve">
<tspan x="10" y="26"></tspan>
<tspan x="10" y="42">&gt; npmdoc-nedb@0.0.1 test /home/travis/build/npmdoc/node-npmdoc-nedb</tspan>
<tspan x="10" y="58">&gt; (set -e; export PORT=$(utility2 shServerPortRandom); utility2 test test.js)</tspan>
<tspan x="10" y="74"></tspan>
<tspan x="10" y="90"></tspan>
<tspan x="10" y="106">[MODE_BUILD=npmTest] - 2017-03-18T10:12:03Z - npm-testing /home/travis/build/npmdoc/node-npmdoc-\</tspan>
<tspan x="10" y="122">nedb</tspan>
<tspan x="10" y="138"></tspan>
<tspan x="10" y="154"></tspan>
<tspan x="10" y="170">covering $ /home/travis/.nvm/versions/node/v7.7.3/bin/node /home/travis/build/npmdoc/node-npmdoc\</tspan>
<tspan x="10" y="186">-nedb/test.js</tspan>
<tspan x="10" y="202">merging file:///home/travis/build/npmdoc/node-npmdoc-nedb/tmp/build/test-report.json to test-rep\</tspan>
<tspan x="10" y="218">ort</tspan>
<tspan x="10" y="234">&gt; server listening on http-port 46031</tspan>
<tspan x="10" y="250">apidocCreate - normalizing dir nedb</tspan>
<tspan x="10" y="266">apidocCreate - normalized dir /home/travis/build/npmdoc/node-npmdoc-nedb/node_modules/nedb</tspan>
<tspan x="10" y="282">created apidoc file:///home/travis/build/npmdoc/node-npmdoc-nedb/tmp/build/apidoc.html</tspan>
<tspan x="10" y="298"></tspan>
<tspan x="10" y="314"></tspan>
<tspan x="10" y="330">browserTest - created electron entry-page /home/travis/build/npmdoc/node-npmdoc-nedb/tmp/electro\</tspan>
<tspan x="10" y="346">n.15ae0e713880.9ad2e76977a85.html</tspan>
<tspan x="10" y="362"></tspan>
<tspan x="10" y="378">apidocCreate - normalizing dir nedb</tspan>
<tspan x="10" y="394">apidocCreate - normalized dir /home/travis/build/npmdoc/node-npmdoc-nedb/node_modules/nedb</tspan>
<tspan x="10" y="410">Xlib:  extension "RANDR" missing on display ":99.0".</tspan>
<tspan x="10" y="426">[node test-case 1 of 6 passed] - testCase_buildLib_default</tspan>
<tspan x="10" y="442">[node test-case 2 of 6 passed] - testCase_buildReadme_default</tspan>
<tspan x="10" y="458">[node test-case 3 of 6 passed] - testCase_buildTest_default</tspan>
<tspan x="10" y="474"></tspan>
<tspan x="10" y="490">browserTest - created electron entry-page /home/travis/build/npmdoc/node-npmdoc-nedb/tmp/electro\</tspan>
<tspan x="10" y="506">n.15ae0e714680.1ec4f2fea2f8f.html</tspan>
<tspan x="10" y="522"></tspan>
<tspan x="10" y="538">(node:4365) DeprecationWarning: node --debug is deprecated. Please use node --inspect instead.</tspan>
<tspan x="10" y="554">Xlib:  extension "RANDR" missing on display ":99.0".</tspan>
<tspan x="10" y="570">&gt; server listening on http-port 47538</tspan>
<tspan x="10" y="586">merging file:///home/travis/build/npmdoc/node-npmdoc-nedb/tmp/build/test-report.json to test-rep\</tspan>
<tspan x="10" y="602">ort</tspan>
<tspan x="10" y="618">Xlib:  extension "RANDR" missing on display ":99.0".</tspan>
<tspan x="10" y="634">[4379:0318/101205:WARNING:audio_manager.cc(314)] Multiple instances of AudioManager detected</tspan>
<tspan x="10" y="650">[4379:0318/101205:WARNING:audio_manager.cc(275)] Multiple instances of AudioManager detected</tspan>
<tspan x="10" y="666">[4424:0318/101205:ERROR:sandbox_linux.cc(343)] InitializeSandbox() called with multiple threads \</tspan>
<tspan x="10" y="682">in process gpu-process. </tspan>
<tspan x="10" y="698">merging file:///home/travis/build/npmdoc/node-npmdoc-nedb/tmp/build/test-report.json to test-rep\</tspan>
<tspan x="10" y="714">ort</tspan>
<tspan x="10" y="730">Xlib:  extension "RANDR" missing on display ":99.0".</tspan>
<tspan x="10" y="746">[4403:0318/101205:WARNING:audio_manager.cc(314)] Multiple instances of AudioManager detected</tspan>
<tspan x="10" y="762">[4403:0318/101205:WARNING:audio_manager.cc(275)] Multiple instances of AudioManager detected</tspan>
<tspan x="10" y="778">[4453:0318/101206:ERROR:sandbox_linux.cc(343)] InitializeSandbox() called with multiple threads \</tspan>
<tspan x="10" y="794">in process gpu-process. </tspan>
<tspan x="10" y="810">[4403:0318/101206:ERROR:browser_gpu_channel_host_factory.cc(131)] Failed to create channel.</tspan>
<tspan x="10" y="826"></tspan>
<tspan x="10" y="842">browserTest - opened url file:///home/travis/build/npmdoc/node-npmdoc-nedb/tmp/build/apidoc.html</tspan>
<tspan x="10" y="858"></tspan>
<tspan x="10" y="874"></tspan>
<tspan x="10" y="890">browserTest - opened url http://127.0.0.1:46031?modeTest=1</tspan>
<tspan x="10" y="906"></tspan>
<tspan x="10" y="922">[4403:0318/101207:INFO:CONSOLE(203)] "----------|-----------|-----------|-----------|-----------\</tspan>
<tspan x="10" y="938">|</tspan>
<tspan x="10" y="954">File      |   % Stmts |% Branches |   % Funcs |   % Lines |</tspan>
<tspan x="10" y="970">----------|-----------|-----------|-----------|-----------|</tspan>
<tspan x="10" y="986">----------|-----------|-----------|-----------|-----------|</tspan>
<tspan x="10" y="1002">All files |       100 |       100 |       100 |       100 |</tspan>
<tspan x="10" y="1018">----------|-----------|-----------|-----------|-----------|</tspan>
<tspan x="10" y="1034">", source: file:///home/travis/build/npmdoc/node-npmdoc-nedb/tmp/electron.15ae0e714680.1ec4f2fea\</tspan>
<tspan x="10" y="1050">2f8f.html (203)</tspan>
<tspan x="10" y="1066">[4403:0318/101207:INFO:CONSOLE(203)] "created coverage file:///tmp/build/coverage.html/index.htm\</tspan>
<tspan x="10" y="1082">l", source: file:///home/travis/build/npmdoc/node-npmdoc-nedb/tmp/electron.15ae0e714680.1ec4f2fe\</tspan>
<tspan x="10" y="1098">a2f8f.html (203)</tspan>
<tspan x="10" y="1114">[node test-case 4 of 6 passed] - testCase_buildApp_default</tspan>
<tspan x="10" y="1130"></tspan>
<tspan x="10" y="1146">browserTest - created screen-capture file:///home/travis/build/npmdoc/node-npmdoc-nedb/tmp/build\</tspan>
<tspan x="10" y="1162">/screen-capture.npmTest.browser._2Fhome_2Ftravis_2Fbuild_2Fnpmdoc_2Fnode-npmdoc-nedb_2Ftmp_2Fbui\</tspan>
<tspan x="10" y="1178">ld_2Fapidoc.html.png</tspan>
<tspan x="10" y="1194"></tspan>
<tspan x="10" y="1210"></tspan>
<tspan x="10" y="1226">browserTest - exit-code 0 - file:///home/travis/build/npmdoc/node-npmdoc-nedb/tmp/build/apidoc.h\</tspan>
<tspan x="10" y="1242">tml</tspan>
<tspan x="10" y="1258"></tspan>
<tspan x="10" y="1274">[node test-case 5 of 6 passed] - testCase_buildApidoc_default</tspan>
<tspan x="10" y="1290"></tspan>
<tspan x="10" y="1306">browserTest - created screen-capture file:///home/travis/build/npmdoc/node-npmdoc-nedb/tmp/build\</tspan>
<tspan x="10" y="1322">/screen-capture.npmTest.browser..png</tspan>
<tspan x="10" y="1338"></tspan>
<tspan x="10" y="1354"></tspan>
<tspan x="10" y="1370">browserTest - exit-code 0 - http://127.0.0.1:46031?modeTest=1</tspan>
<tspan x="10" y="1386"></tspan>
<tspan x="10" y="1402"></tspan>
<tspan x="10" y="1418">browserTest - merged coverage from /home/travis/build/npmdoc/node-npmdoc-nedb/tmp/coverage.npmTe\</tspan>
<tspan x="10" y="1434">st.browser.%2F.json</tspan>
<tspan x="10" y="1450"></tspan>
<tspan x="10" y="1466"></tspan>
<tspan x="10" y="1482">browserTest - merging test-report from /home/travis/build/npmdoc/node-npmdoc-nedb/tmp/test-repor\</tspan>
<tspan x="10" y="1498">t.npmTest.browser.%2F.json</tspan>
<tspan x="10" y="1514"></tspan>
<tspan x="10" y="1530">[node test-case 6 of 6 passed] - testCase_webpage_default</tspan>
<tspan x="10" y="1546">-------------------------|-----------|-----------|-----------|-----------|</tspan>
<tspan x="10" y="1562">File                     |   % Stmts |% Branches |   % Funcs |   % Lines |</tspan>
<tspan x="10" y="1578">-------------------------|-----------|-----------|-----------|-----------|</tspan>
<tspan x="10" y="1594">   node-npmdoc-nedb/     |       100 |       100 |       100 |       100 |</tspan>
<tspan x="10" y="1610">      example.js         |       100 |       100 |       100 |       100 |</tspan>
<tspan x="10" y="1626">      lib.npmdoc_nedb.js |       100 |       100 |       100 |       100 |</tspan>
<tspan x="10" y="1642">      test.js            |       100 |       100 |       100 |       100 |</tspan>
<tspan x="10" y="1658">-------------------------|-----------|-----------|-----------|-----------|</tspan>
<tspan x="10" y="1674">All files                |       100 |       100 |       100 |       100 |</tspan>
<tspan x="10" y="1690">-------------------------|-----------|-----------|-----------|-----------|</tspan>
<tspan x="10" y="1706"></tspan>
<tspan x="10" y="1722">created coverage file:///home/travis/build/npmdoc/node-npmdoc-nedb/tmp/build/coverage.html/index\</tspan>
<tspan x="10" y="1738">.html</tspan>
<tspan x="10" y="1754">merging file:///home/travis/build/npmdoc/node-npmdoc-nedb/tmp/build/test-report.json to test-rep\</tspan>
<tspan x="10" y="1770">ort</tspan>
<tspan x="10" y="1786"></tspan>
<tspan x="10" y="1802">-------------------------------------------------------</tspan>
<tspan x="10" y="1818">| test-report - buildNpmdoc - node - linux v7.7.3 - 2017-03-18T10:11:54.208Z</tspan>
<tspan x="10" y="1834">|   16120 ms            0 failed        6 passed      |</tspan>
<tspan x="10" y="1850">-------------------------------------------------------</tspan>
<tspan x="10" y="1866"></tspan>
<tspan x="10" y="1882">created test-report file:///home/travis/build/npmdoc/node-npmdoc-nedb/tmp/build/test-report.html</tspan>
<tspan x="10" y="1898"></tspan>
<tspan x="10" y="1914"></tspan>
<tspan x="10" y="1930">npmTest - 0 failed tests</tspan>
<tspan x="10" y="1946"></tspan>
<tspan x="10" y="1962"></tspan>
<tspan x="10" y="1978">[MODE_BUILD=npmTest] - 2017-03-18T10:12:13Z - EXIT_CODE - 0</tspan>
</text>
</svg>
