<svg height="2206" width="720" xmlns="http://www.w3.org/2000/svg">
<rect height="2206" fill="#555" width="720"></rect>
<text fill="#7f7" font-family="Courier New" font-size="12" xml:space="preserve">
<tspan x="10" y="26"></tspan>
<tspan x="10" y="42">&gt; npmdoc-nedb@0.0.1 test /home/travis/build/npmdoc/node-npmdoc-nedb</tspan>
<tspan x="10" y="58">&gt; (set -e; export PORT=$(utility2 shServerPortRandom); utility2 test test.js)</tspan>
<tspan x="10" y="74"></tspan>
<tspan x="10" y="90"></tspan>
<tspan x="10" y="106">[MODE_BUILD=npmTest] - 2017-03-25T12:03:57Z - npm-testing /home/travis/build/npmdoc/node-npmdoc-\</tspan>
<tspan x="10" y="122">nedb</tspan>
<tspan x="10" y="138"></tspan>
<tspan x="10" y="154"></tspan>
<tspan x="10" y="170">covering $ /home/travis/.nvm/versions/node/v6.10.1/bin/node /home/travis/build/npmdoc/node-npmdo\</tspan>
<tspan x="10" y="186">c-nedb/test.js</tspan>
<tspan x="10" y="202">merging file:///home/travis/build/npmdoc/node-npmdoc-nedb/tmp/build/test-report.json to test-rep\</tspan>
<tspan x="10" y="218">ort</tspan>
<tspan x="10" y="234">&gt; server listening on http-port 40237</tspan>
<tspan x="10" y="250">created apidoc file:///home/travis/build/npmdoc/node-npmdoc-nedb/tmp/build/apidoc.html</tspan>
<tspan x="10" y="266"></tspan>
<tspan x="10" y="282"></tspan>
<tspan x="10" y="298">browserTest - created electron entry-page /home/travis/build/npmdoc/node-npmdoc-nedb/tmp/electro\</tspan>
<tspan x="10" y="314">n.15b055a096b0.bff9780452365.html</tspan>
<tspan x="10" y="330"></tspan>
<tspan x="10" y="346">Xlib:  extension "RANDR" missing on display ":99.0".</tspan>
<tspan x="10" y="362">[node test-case 1 of 6 passed] - testCase_buildLib_default</tspan>
<tspan x="10" y="378">[node test-case 2 of 6 passed] - testCase_buildReadme_default</tspan>
<tspan x="10" y="394">[node test-case 3 of 6 passed] - testCase_buildTest_default</tspan>
<tspan x="10" y="410"></tspan>
<tspan x="10" y="426">browserTest - created electron entry-page /home/travis/build/npmdoc/node-npmdoc-nedb/tmp/electro\</tspan>
<tspan x="10" y="442">n.15b055a0a5e0.900a8a7d21741.html</tspan>
<tspan x="10" y="458"></tspan>
<tspan x="10" y="474">Xlib:  extension "RANDR" missing on display ":99.0".</tspan>
<tspan x="10" y="490"></tspan>
<tspan x="10" y="506">/home/travis/build/npmdoc/node-npmdoc-nedb/node_modules/utility2/lib.utility2.sh.html.js</tspan>
<tspan x="10" y="522"> #1 Line too long.</tspan>
<tspan x="10" y="538">    process.stdout.write('export npm_package_' + key.replace((/\W/g), '_') + '=' + JSON.stringif\</tspan>
<tspan x="10" y="554">y(value) + ';'); // Line 1445, Pos 116</tspan>
<tspan x="10" y="570"></tspan>
<tspan x="10" y="586">&gt; server listening on http-port 38094</tspan>
<tspan x="10" y="602">merging file:///home/travis/build/npmdoc/node-npmdoc-nedb/tmp/build/test-report.json to test-rep\</tspan>
<tspan x="10" y="618">ort</tspan>
<tspan x="10" y="634">Xlib:  extension "RANDR" missing on display ":99.0".</tspan>
<tspan x="10" y="650">[4842:0325/120359:WARNING:audio_manager.cc(314)] Multiple instances of AudioManager detected</tspan>
<tspan x="10" y="666">[4842:0325/120359:WARNING:audio_manager.cc(275)] Multiple instances of AudioManager detected</tspan>
<tspan x="10" y="682">[4886:0325/120359:ERROR:sandbox_linux.cc(343)] InitializeSandbox() called with multiple threads \</tspan>
<tspan x="10" y="698">in process gpu-process. </tspan>
<tspan x="10" y="714"></tspan>
<tspan x="10" y="730">/home/travis/build/npmdoc/node-npmdoc-nedb/node_modules/utility2/lib.utility2.sh.html.js</tspan>
<tspan x="10" y="746"> #1 Line too long.</tspan>
<tspan x="10" y="762">    process.stdout.write('export npm_package_' + key.replace((/\W/g), '_') + '=' + JSON.stringif\</tspan>
<tspan x="10" y="778">y(value) + ';'); // Line 1445, Pos 116</tspan>
<tspan x="10" y="794"></tspan>
<tspan x="10" y="810">merging file:///home/travis/build/npmdoc/node-npmdoc-nedb/tmp/build/test-report.json to test-rep\</tspan>
<tspan x="10" y="826">ort</tspan>
<tspan x="10" y="842">Xlib:  extension "RANDR" missing on display ":99.0".</tspan>
<tspan x="10" y="858">[4864:0325/120359:WARNING:audio_manager.cc(314)] Multiple instances of AudioManager detected</tspan>
<tspan x="10" y="874">[4864:0325/120359:WARNING:audio_manager.cc(275)] Multiple instances of AudioManager detected</tspan>
<tspan x="10" y="890">[4919:0325/120359:ERROR:sandbox_linux.cc(343)] InitializeSandbox() called with multiple threads \</tspan>
<tspan x="10" y="906">in process gpu-process. </tspan>
<tspan x="10" y="922"></tspan>
<tspan x="10" y="938">browserTest - opened url file:///home/travis/build/npmdoc/node-npmdoc-nedb/tmp/build/apidoc.html</tspan>
<tspan x="10" y="954"></tspan>
<tspan x="10" y="970">[4864:0325/120359:ERROR:browser_gpu_channel_host_factory.cc(131)] Failed to create channel.</tspan>
<tspan x="10" y="986"></tspan>
<tspan x="10" y="1002">browserTest - opened url http://127.0.0.1:40237?modeTest=1</tspan>
<tspan x="10" y="1018"></tspan>
<tspan x="10" y="1034">[4864:0325/120401:INFO:CONSOLE(203)] "----------|-----------|-----------|-----------|-----------\</tspan>
<tspan x="10" y="1050">|</tspan>
<tspan x="10" y="1066">File      |   % Stmts |% Branches |   % Funcs |   % Lines |</tspan>
<tspan x="10" y="1082">----------|-----------|-----------|-----------|-----------|</tspan>
<tspan x="10" y="1098">----------|-----------|-----------|-----------|-----------|</tspan>
<tspan x="10" y="1114">All files |       100 |       100 |       100 |       100 |</tspan>
<tspan x="10" y="1130">----------|-----------|-----------|-----------|-----------|</tspan>
<tspan x="10" y="1146">", source: file:///home/travis/build/npmdoc/node-npmdoc-nedb/tmp/electron.15b055a0a5e0.900a8a7d2\</tspan>
<tspan x="10" y="1162">1741.html (203)</tspan>
<tspan x="10" y="1178">[4864:0325/120401:INFO:CONSOLE(203)] "created coverage file:///tmp/build/coverage.html/index.htm\</tspan>
<tspan x="10" y="1194">l", source: file:///home/travis/build/npmdoc/node-npmdoc-nedb/tmp/electron.15b055a0a5e0.900a8a7d\</tspan>
<tspan x="10" y="1210">21741.html (203)</tspan>
<tspan x="10" y="1226">[node test-case 4 of 6 passed] - testCase_buildApp_default</tspan>
<tspan x="10" y="1242"></tspan>
<tspan x="10" y="1258">browserTest - created screen-capture file:///home/travis/build/npmdoc/node-npmdoc-nedb/tmp/build\</tspan>
<tspan x="10" y="1274">/screen-capture.npmTest.browser._2Fhome_2Ftravis_2Fbuild_2Fnpmdoc_2Fnode-npmdoc-nedb_2Ftmp_2Fbui\</tspan>
<tspan x="10" y="1290">ld_2Fapidoc.html.png</tspan>
<tspan x="10" y="1306"></tspan>
<tspan x="10" y="1322"></tspan>
<tspan x="10" y="1338">browserTest - exit-code 0 - file:///home/travis/build/npmdoc/node-npmdoc-nedb/tmp/build/apidoc.h\</tspan>
<tspan x="10" y="1354">tml</tspan>
<tspan x="10" y="1370"></tspan>
<tspan x="10" y="1386">[node test-case 5 of 6 passed] - testCase_buildApidoc_default</tspan>
<tspan x="10" y="1402"></tspan>
<tspan x="10" y="1418">browserTest - created screen-capture file:///home/travis/build/npmdoc/node-npmdoc-nedb/tmp/build\</tspan>
<tspan x="10" y="1434">/screen-capture.npmTest.browser..png</tspan>
<tspan x="10" y="1450"></tspan>
<tspan x="10" y="1466"></tspan>
<tspan x="10" y="1482">browserTest - exit-code 0 - http://127.0.0.1:40237?modeTest=1</tspan>
<tspan x="10" y="1498"></tspan>
<tspan x="10" y="1514"></tspan>
<tspan x="10" y="1530">browserTest - merged coverage from /home/travis/build/npmdoc/node-npmdoc-nedb/tmp/coverage.npmTe\</tspan>
<tspan x="10" y="1546">st.browser.%2F.json</tspan>
<tspan x="10" y="1562"></tspan>
<tspan x="10" y="1578"></tspan>
<tspan x="10" y="1594">browserTest - merging test-report from /home/travis/build/npmdoc/node-npmdoc-nedb/tmp/test-repor\</tspan>
<tspan x="10" y="1610">t.npmTest.browser.%2F.json</tspan>
<tspan x="10" y="1626"></tspan>
<tspan x="10" y="1642">[node test-case 6 of 6 passed] - testCase_webpage_default</tspan>
<tspan x="10" y="1658">-------------------------|-----------|-----------|-----------|-----------|</tspan>
<tspan x="10" y="1674">File                     |   % Stmts |% Branches |   % Funcs |   % Lines |</tspan>
<tspan x="10" y="1690">-------------------------|-----------|-----------|-----------|-----------|</tspan>
<tspan x="10" y="1706">   node-npmdoc-nedb/     |       100 |       100 |       100 |       100 |</tspan>
<tspan x="10" y="1722">      example.js         |       100 |       100 |       100 |       100 |</tspan>
<tspan x="10" y="1738">      lib.npmdoc_nedb.js |       100 |       100 |       100 |       100 |</tspan>
<tspan x="10" y="1754">      test.js            |       100 |       100 |       100 |       100 |</tspan>
<tspan x="10" y="1770">-------------------------|-----------|-----------|-----------|-----------|</tspan>
<tspan x="10" y="1786">All files                |       100 |       100 |       100 |       100 |</tspan>
<tspan x="10" y="1802">-------------------------|-----------|-----------|-----------|-----------|</tspan>
<tspan x="10" y="1818"></tspan>
<tspan x="10" y="1834">created coverage file:///home/travis/build/npmdoc/node-npmdoc-nedb/tmp/build/coverage.html/index\</tspan>
<tspan x="10" y="1850">.html</tspan>
<tspan x="10" y="1866"></tspan>
<tspan x="10" y="1882">/home/travis/build/npmdoc/node-npmdoc-nedb/node_modules/utility2/lib.utility2.sh.html.js</tspan>
<tspan x="10" y="1898"> #1 Line too long.</tspan>
<tspan x="10" y="1914">    process.stdout.write('export npm_package_' + key.replace((/\W/g), '_') + '=' + JSON.stringif\</tspan>
<tspan x="10" y="1930">y(value) + ';'); // Line 1445, Pos 116</tspan>
<tspan x="10" y="1946"></tspan>
<tspan x="10" y="1962">merging file:///home/travis/build/npmdoc/node-npmdoc-nedb/tmp/build/test-report.json to test-rep\</tspan>
<tspan x="10" y="1978">ort</tspan>
<tspan x="10" y="1994"></tspan>
<tspan x="10" y="2010">-------------------------------------------------------</tspan>
<tspan x="10" y="2026">| test-report - buildNpmdoc - node - linux v6.10.1 - 2017-03-25T12:03:47.847Z</tspan>
<tspan x="10" y="2042">|   16159 ms            0 failed        6 passed      |</tspan>
<tspan x="10" y="2058">-------------------------------------------------------</tspan>
<tspan x="10" y="2074"></tspan>
<tspan x="10" y="2090">created test-report file:///home/travis/build/npmdoc/node-npmdoc-nedb/tmp/build/test-report.html</tspan>
<tspan x="10" y="2106"></tspan>
<tspan x="10" y="2122"></tspan>
<tspan x="10" y="2138">npmTest - 0 failed tests</tspan>
<tspan x="10" y="2154"></tspan>
<tspan x="10" y="2170"></tspan>
<tspan x="10" y="2186">[MODE_BUILD=npmTest] - 2017-03-25T12:04:06Z - EXIT_CODE - 0</tspan>
</text>
</svg>
